inDegrees=no
num_controls=7
num_derivatives=13
num_iterations=211
num_multipliers=7
num_parameters=0
num_slacks=7
num_states=26
objective=5.861044
objective_accelerations=0.845643
objective_balance=0.060277
objective_effort=0.306599
objective_height=4.581324
objective_ligament=0.067202
solver_duration=2323.748306
status=Solve_Succeeded
success=true
DataType=double
version=3
OpenSimVersion=4.4-2022-07-23-0e9fedc
endheader
time	/jointset/ground_pelvis/pelvis_tilt/value	/jointset/ground_pelvis/pelvis_tx/value	/jointset/ground_pelvis/pelvis_ty/value	/jointset/hip_l/hip_flexion_l/value	/jointset/hip_l/hip_adduction_l/value	/jointset/hip_l/hip_rotation_l/value	/jointset/back/lumbar_extension/value	/jointset/patellofemoral_l/patellar_flexion_l/value	/jointset/knee_l/knee_flexion_l/value	/jointset/knee_l/knee_adduction_l/value	/jointset/knee_l/knee_rotation_l/value	/jointset/ankle_l/ankle_angle_l/value	/jointset/subtalar_l/subtalar_angle_l/value	/jointset/ground_pelvis/pelvis_tilt/speed	/jointset/ground_pelvis/pelvis_tx/speed	/jointset/ground_pelvis/pelvis_ty/speed	/jointset/hip_l/hip_flexion_l/speed	/jointset/hip_l/hip_adduction_l/speed	/jointset/hip_l/hip_rotation_l/speed	/jointset/back/lumbar_extension/speed	/jointset/patellofemoral_l/patellar_flexion_l/speed	/jointset/knee_l/knee_flexion_l/speed	/jointset/knee_l/knee_adduction_l/speed	/jointset/knee_l/knee_rotation_l/speed	/jointset/ankle_l/ankle_angle_l/speed	/jointset/subtalar_l/subtalar_angle_l/speed	/forceset/tau_hip_flexion_l	/forceset/tau_hip_adduction_l	/forceset/tau_hip_rotation_l	/forceset/tau_knee_flexion_l	/forceset/tau_ankle_angle_l	/forceset/tau_subtalar_angle_l	/forceset/tau_lumbar_extension	lambda_cid13_p0	lambda_cid13_p1	lambda_cid13_p2	lambda_cid13_p3	lambda_cid13_p4	lambda_cid13_p5	lambda_cid14_p0	/jointset/ground_pelvis/pelvis_tilt/accel	/jointset/ground_pelvis/pelvis_tx/accel	/jointset/ground_pelvis/pelvis_ty/accel	/jointset/hip_l/hip_flexion_l/accel	/jointset/hip_l/hip_adduction_l/accel	/jointset/hip_l/hip_rotation_l/accel	/jointset/back/lumbar_extension/accel	/jointset/patellofemoral_l/patellar_flexion_l/accel	/jointset/knee_l/knee_flexion_l/accel	/jointset/knee_l/knee_adduction_l/accel	/jointset/knee_l/knee_rotation_l/accel	/jointset/ankle_l/ankle_angle_l/accel	/jointset/subtalar_l/subtalar_angle_l/accel	gamma_cid13_p0	gamma_cid13_p1	gamma_cid13_p2	gamma_cid13_p3	gamma_cid13_p4	gamma_cid13_p5	gamma_cid14_p0
0.5	-0.3777510965339481	-0.0413891133894357	0.7433957244176151	1.185421494196183	-0.4387365339145881	-0.2106048503417627	-0.2555386431824719	0.8675033085292907	0.8675033085292976	-0.1084784349363682	-0.1640622070607374	0.1268891608649679	-0.02451920060482395	-0.8551812634670409	-0.2145280291859509	-0.600388243800199	2.705481197463907	-0.1964294203257182	0.797390044155965	-0.1072603435295314	2.14364416357806	2.143644163578271	0.1798478042216286	-0.06850747390109058	0.49207069864523	0.02842129659663466	-0.1865408118744839	0.01817025720109936	-0.01164307155622461	-0.2120044806745695	0.05031503688669655	0.05023973251101455	0.1785686482368828	-16.00457903660136	-22.24916920167029	6.903317650806555	-6.86814942853333	-519.4418856063594	-65.22093819888021	-22.35627687296504	0.9454280901091108	0.6748443227026549	-0.5140706007682757	-1.520153109159695	0.8150279356684559	-0.3172502376488804	1.124558002979821	-1.414749301155744	-1.414749301155758	0.09958712764764498	0.1781852099542227	-0.6515763494656864	0.5751969267409867	-7.867382932289098e-07	-1.991441355620634e-07	4.355834513690835e-06	3.358060245016394e-07	-8.596536462812753e-07	3.78460471398468e-07	-6.305679323336601e-07
0.51	-0.3862534619122561	-0.04350040087576353	0.7373675011079004	1.212394904893941	-0.4406615731376698	-0.202644119226329	-0.2565565079413513	0.888865656749658	0.8888656567496346	-0.1066810920147325	-0.164737346926397	0.1317758737170729	-0.02420871327956249	-0.8451645284945198	-0.2077134441693981	-0.6051245570021186	2.68882980176224	-0.1885684589550973	0.7946547865260257	-0.09636653506991731	2.12853806785545	2.128538067855571	0.1796049243214765	-0.06651939186574363	0.4851859748589346	0.03365259166347066	-0.1927484464749662	0.018689483442307	-0.01150386643866324	-0.2147396934291342	0.04930897053987485	0.05043863229616816	0.1832628855516126	-16.5581298446513	-22.20156612190541	6.853392605474094	-6.685837731330889	-523.6428754298031	-64.86620230201751	-21.34498188508921	1.048780815701625	0.6872402989265487	-0.4338025064440929	-1.793429455120463	0.7725717832299835	-0.2674230046650478	1.063703243895737	-1.601526265361608	-1.601526265375167	-0.08849087056387639	0.2101666986991741	-0.7197783502458812	0.4930674065504481	-7.626440166697096e-07	-6.645938026965511e-08	4.402492481794018e-06	3.71896505987788e-07	-8.332326288491096e-07	5.046653379384695e-07	-6.177221658754911e-07
0.52	-0.3946518630178658	-0.04554304757036677	0.7312958365008586	1.239190642303791	-0.4425078144379524	-0.1947138925829888	-0.2574670524203466	0.9100683467012933	0.9100683467012336	-0.1048866309564375	-0.1653923965720296	0.1365911677399086	-0.02384671868165359	-0.834388408926878	-0.2007998708410359	-0.609076503265633	2.669946539882565	-0.1806698357656348	0.7912891497361439	-0.08579628755256011	2.111712509830922	2.111712509830952	0.1792714315526377	-0.0644894298954265	0.4777869327912631	0.03872275112613081	-0.1989560810754463	0.01920870968352896	-0.01136466132117392	-0.2174749061836948	0.04830290419305831	0.05063753208134284	0.1879571228663371	-17.1129269928933	-22.15462764025179	6.804584910634755	-6.552347527424581	-527.898083847716	-64.58353041468162	-20.34343873209391	1.097305009133244	0.6946419850645162	-0.3571972130872162	-1.966526344761155	0.8225602994367791	-0.4433260696373872	1.059845814528421	-1.758641761539346	-1.758641761539382	0.08146455391030323	0.1865611969482608	-0.7544400057409439	0.5429698059058087	-7.303861462591579e-07	6.778973078020546e-08	4.416679082122147e-06	4.048092514146007e-07	-7.993795783281695e-07	6.29552367787697e-07	-5.995982036673654e-07
0.53	-0.4029389369701064	-0.04751614739605452	0.7251885989206217	1.265786797473897	-0.4442747931325655	-0.1868200551951281	-0.2582735333310794	0.931094388358243	0.9310943883581506	-0.1030959764068953	-0.1660266903921973	0.1413300340218945	-0.02343467064439949	-0.822905388839123	-0.1938109379637787	-0.6122353449486496	2.648923527563516	-0.1727216558162297	0.7873792727105444	-0.07557253439220225	2.093221959654028	2.093221959654067	0.1788433067756501	-0.06236792154720902	0.469909557103575	0.04366121524287362	-0.2050087954591873	0.01955614456394786	-0.01113403922283293	-0.2203884365978235	0.04744931898314071	0.05060266885165528	0.1924834587914347	-17.62636769263573	-22.00406910453475	6.728588099486086	-6.340267033956774	-532.1487890743689	-64.1549289006052	-19.3545769596601	1.191843833875688	0.7024768083190989	-0.2750337905755993	-2.224456219578885	0.7809957353196448	-0.3801889553535286	0.99274409702459	-1.93522291589721	-1.935222915895976	-0.1072412062657176	0.226046470443868	-0.8158570890671559	0.4648989399911673	-6.934952006756725e-07	1.831036824516089e-07	4.390515933118991e-06	4.295783205927187e-07	-7.607381171389396e-07	7.455153565640362e-07	-5.78948968931155e-07
0.54	-0.4111075720564172	-0.04941906631911708	0.7190538116946216	1.292161869011992	-0.4459622802491613	-0.1789683906647828	-0.2589799559041617	0.951927332259402	0.9519273322592693	-0.101310061147668	-0.1666395489655481	0.145987832399247	-0.02297411512089152	-0.810700635740205	-0.1867636903159969	-0.6145864324183204	2.625729813480387	-0.1647715201617349	0.7828545782316543	-0.06578462002243751	2.073092958671819	2.073092958671865	0.178323573488168	-0.060202380531576	0.4615733518645108	0.04842424837692499	-0.2110615098429098	0.0199035794443822	-0.01090341712460149	-0.2233019670119487	0.04659573377322632	0.05056780562198993	0.1970097947165443	-18.14059144571708	-21.85349245839057	6.652727352000928	-6.17875193204693	-536.4480096448882	-63.79282244648716	-18.38069402805722	1.24165161136584	0.7063049391694167	-0.1956463704180298	-2.400666697577035	0.8229514404547111	-0.5662895602955124	0.9726780564097751	-2.086331922602604	-2.086331922602602	0.0631428518113811	0.1953677304313677	-0.8462059160161847	0.5078836093675164	-6.514782995817071e-07	2.774680960872721e-07	4.319710508259944e-06	4.453373649850467e-07	-7.167988398911761e-07	8.51604938195903e-07	-5.55505815653234e-07
0.55	-0.4191508311397762	-0.05125133102477325	0.7128995573812844	1.318294632267653	-0.4475701259893344	-0.1711649575778974	-0.2595906931931667	0.9725509737659449	0.9725509737658895	-0.0995295483236957	-0.1672304627617953	0.1505600606914977	-0.02246662138383498	-0.7978410353770912	-0.1796895546786852	-0.6161266907687352	2.600478500964965	-0.156797459589322	0.7777240952095217	-0.0564544780037748	2.051371032800882	2.051371032800946	0.1777714281009445	-0.05798311275551829	0.4527988646855745	0.05304537147655942	-0.216921881559733	0.01992550255607762	-0.01057197643819018	-0.2263215648843637	0.04567212311667395	0.05047969162623683	0.2013264250336225	-18.67798024647448	-21.67116235889694	6.566580493520633	-5.88304180661129	-540.677241962583	-63.46524218096034	-17.42348584671734	1.324537775176204	0.7080130831543331	-0.1126932116808186	-2.639127957856437	0.7840685673726776	-0.5030826344287719	0.8994362407754024	-2.254660851097215	-2.254660851094506	-0.1153872936381243	0.2356610900163522	-0.9040292482159042	0.4343031489503072	-6.04537036257758e-07	3.488486244797979e-07	4.185745805176881e-06	4.502338134596916e-07	-6.676480966093946e-07	9.345297093241352e-07	-5.271840742191232e-07
0.5600000000000001	-0.4270622095142297	-0.05301284533262775	0.7067340049555778	1.34416452951229	-0.4490983440834387	-0.1634161603134794	-0.2601108782687492	0.9929494884274319	0.9929494884274457	-0.09775475576551766	-0.1677990929225183	0.1550423522860818	-0.0219139011180445	-0.7843244939582927	-0.1726136107556651	-0.6168460548922442	2.573156611276276	-0.148845990947383	0.7719274137371233	-0.04767417733787444	2.028067589659629	2.028067589659711	0.1771795203277657	-0.05574565342652481	0.4435860123312965	0.05746955412375208	-0.222782253276546	0.01994742566777766	-0.01024053575186475	-0.229341162756778	0.04474851246012083	0.05039157763048951	0.205643055350709	-19.21625976905705	-21.48845422781002	6.480122681622995	-5.636037791440797	-544.9553387817008	-63.19979583321663	-16.48417959829986	1.373039822502733	0.7066665963111211	-0.03146752503691169	-2.814782132230656	0.8184330543599128	-0.6995292503486822	0.8627097858572834	-2.402635376665509	-2.402635376665594	0.05519037462028069	0.199006041018522	-0.9338789510845376	0.4684955188791613	-5.51686538257829e-07	3.926484905805595e-07	3.975989968225002e-06	4.420951468331172e-07	-6.122435940867919e-07	9.896567078480068e-07	-4.930080269975851e-07
0.5700000000000001	-0.4348352755217332	-0.05470370695034723	0.7005653344838814	1.369751255961383	-0.4505471153960821	-0.1557282439185375	-0.2605459978982846	1.013107337813683	1.013107337813828	-0.09598620048322552	-0.1683450799157999	0.1594304174833365	-0.02131784259546552	-0.7701762770748889	-0.1655692111153009	-0.6167518754073203	2.543855095108757	-0.1409233398831474	0.7656101911011278	-0.03945689407457786	2.003257046631514	2.003257046631568	0.1764593801818304	-0.05343219306474555	0.4339562777138495	0.06169410399971552	-0.2286600078606259	0.02046422278278659	-0.009797227442723815	-0.2320294545240571	0.04348694774768516	0.04978056509127773	0.2099029530272313	-19.86706048665719	-21.0315517690432	6.318653157434692	-5.118369226571597	-549.0773864667267	-62.4154123141176	-15.56347126220302	1.452491745421514	0.7018393971689476	0.05016911049752757	-3.03797278092447	0.7763769457227588	-0.6050649174895768	0.7851657707181677	-2.556955174522265	-2.556955174526409	-0.1463134259200017	0.2512337946051921	-0.9880718786507567	0.391708124334297	-4.264247777043912e-07	2.338921451434703e-07	3.016590758013466e-06	3.152566018073181e-07	-4.741659172046788e-07	7.989485446779147e-07	-3.900080045402227e-07
0.58	-0.4424635035355765	-0.05632442202180898	0.6944016674920824	1.395034939964414	-0.4519172210354345	-0.1481049489794009	-0.260902159060357	1.033009743487923	1.0330097434882	-0.09422698604572806	-0.1688671887533029	0.1637200751021008	-0.02068108389365129	-0.7553568952249875	-0.1585843015041198	-0.6158453589127674	2.51254812206477	-0.133112856288212	0.7590031225745449	-0.03188248384518608	1.976978847257889	1.976978847257915	0.1753113513671105	-0.05097002226906142	0.4239044966333642	0.06560958997085559	-0.2345377624446965	0.0209810198977963	-0.00935391913346928	-0.234717746291341	0.04222538303524837	0.04916955255206852	0.2141628507037614	-20.51905050144599	-20.57191892452111	6.153869876852786	-4.641735959198239	-553.2501408569962	-61.68439442569272	-14.66163878480227	1.507272815802235	0.6947685904744991	0.1309998768889076	-3.215873507524156	0.7959995604998884	-0.7574984284661388	0.7341351790763007	-2.696166645767724	-2.696166645767708	-0.0303873591366518	0.2287481277994989	-1.018288243692202	0.4066827379144956	-2.06859977546389e-07	-1.886583362498768e-07	1.080911805882432e-06	3.383216863369982e-08	-2.284208504590237e-07	2.880829616273274e-07	-1.973767585199314e-07
0.59	-0.4499407166702624	-0.05787560329742999	0.6882511283593327	1.419996245688748	-0.4532090648856839	-0.1405537856382631	-0.2611856767417966	1.052642295332068	1.052642295332136	-0.09247628298671305	-0.1693658890490722	0.1679075092766019	-0.02000556511088659	-0.7399983488287888	-0.151660481293063	-0.6141233775570124	2.479387569929034	-0.1252788631299375	0.7511813260945288	-0.02494881152318661	1.949287433110992	1.949287433111015	0.1747539867133088	-0.04874397522244827	0.4135280253280915	0.06944491500764262	-0.2396955402667692	0.02028342475546265	-0.008871777042218571	-0.2383139184205002	0.04192619899172367	0.04894643799724912	0.2178583684338685	-20.85081777777555	-20.35818127242349	6.052688925298863	-4.455588730235217	-557.322031294232	-61.53847297191498	-13.77860927990769	1.563249254849423	0.6898833769783212	0.2136438871663172	-3.414968343467108	0.7737088841584737	-0.8018153357395377	0.6538193966331557	-2.842225163764796	-2.842225163765109	-0.07978143290263806	0.223441365478423	-1.055498994714196	0.3646466434880706	-6.923423892788073e-08	-4.382076336700388e-07	-1.171687993331718e-07	-1.390999855543863e-07	-7.144264686784125e-08	-3.140125551971814e-08	-7.626529233817562e-08
